# xmcd
#
# Track frame offsets:
#	150
#	18613
#	42722
#	56274
#	71372
#	82374
#	106162
#	120644
#	138393
#	156863
#	174288
#
# Disc length: 2458 seconds
#
# Revision: 1
# Processed by: cddbd v1.5.2PL0 Copyright (c) Steve Scherf et al.
# Submitted via: audiograbber 1.81.03
#
DISCID=9309980b
DTITLE=Bloodline Blues Band - A`Musical Ride You Won't Want To End
DYEAR=2006
DGENRE=Blues
TTITLE0=Statesboro Blues
TTITLE1=Post Man
TTITLE2=Little Red Rooster
TTITLE3=Three Hundred Pounds
TTITLE4=Love Vain
TTITLE5=Can't Always Get What You Want
TTITLE6=Mustang Sally
TTITLE7=Louise
TTITLE8=Melissa
TTITLE9=Bring It On Home
TTITLE10=Little Martha
EXTD=
EXTT0=
EXTT1=
EXTT2=
EXTT3=
EXTT4=
EXTT5=
EXTT6=
EXTT7=
EXTT8=
EXTT9=
EXTT10=
PLAYORDER=
